<svg xmlns="http://www.w3.org/2000/svg" width="1005.401" height="1005.401" viewBox="0 0 266.012 266.012"><defs><marker orient="auto" refY="0" refX="0" id="a" style="overflow:visible"><path d="m0 0 5-5-17.5 5L5 5Z" style="fill:#000;fill-opacity:1;fill-rule:evenodd;stroke:none;stroke-width:1pt;stroke-opacity:1" transform="matrix(.8 0 0 .8 10 0)"/></marker><marker orient="auto" refY="0" refX="0" id="b" style="overflow:visible"><path d="m0 0 5-5-17.5 5L5 5Z" style="fill:#000;fill-opacity:1;fill-rule:evenodd;stroke:none;stroke-width:1pt;stroke-opacity:1" transform="matrix(.8 0 0 .8 10 0)"/></marker><marker orient="auto" refY="0" refX="0" id="c" style="overflow:visible"><path d="m0 0 5-5-17.5 5L5 5Z" style="fill:#000;fill-opacity:1;fill-rule:evenodd;stroke:none;stroke-width:1pt;stroke-opacity:1" transform="matrix(.8 0 0 .8 10 0)"/></marker><marker orient="auto" refY="0" refX="0" id="d" style="overflow:visible"><path d="m0 0 5-5-17.5 5L5 5Z" style="fill:#000;fill-opacity:1;fill-rule:evenodd;stroke:none;stroke-width:1pt;stroke-opacity:1" transform="matrix(.8 0 0 .8 10 0)"/></marker><marker orient="auto" refY="0" refX="0" id="e" style="overflow:visible"><path d="m0 0 5-5-17.5 5L5 5Z" style="fill:#000;fill-opacity:1;fill-rule:evenodd;stroke:none;stroke-width:1pt;stroke-opacity:1" transform="matrix(.8 0 0 .8 10 0)"/></marker><marker orient="auto" refY="0" refX="0" id="f" style="overflow:visible"><path d="m0 0 5-5-17.5 5L5 5Z" style="fill:#000;fill-opacity:1;fill-rule:evenodd;stroke:none;stroke-width:1pt;stroke-opacity:1" transform="matrix(.8 0 0 .8 10 0)"/></marker></defs><g transform="matrix(.26448 0 0 .26448 -90.956 120.372)" style="image-rendering:optimizeQuality"><circle cx="846.383" cy="46.674" style="fill:#dededb;fill-opacity:1;stroke:#000;stroke-width:.400975;stroke-opacity:1" r="500"/><ellipse style="fill:#000;fill-opacity:1;stroke-width:.512463;stroke-miterlimit:4;stroke-dasharray:none;marker-start:url(#a)" cx="539.155" cy="-227.801" rx="46.489" ry="47.786"/><path style="fill:none;stroke:#000;stroke-width:18.1329;stroke-linecap:butt;stroke-linejoin:miter;stroke-miterlimit:4;stroke-dasharray:none;stroke-opacity:1" d="M841.202 428.376c37.794-99.964 51.827-208.618 99.1-293.706M579.941 169.635c114.59-27.121 254.73-32.688 360.36-34.965M944.806-161.368c2.435 97.362-2.634 206.986-4.504 296.038M1233.094 18.12c-96.405 37.273-214.723 80.848-292.792 116.55"/><path style="fill:none;stroke:#000;stroke-width:18.1329;stroke-linecap:butt;stroke-linejoin:round;stroke-miterlimit:4;stroke-dasharray:none;stroke-opacity:1;paint-order:fill markers stroke" d="M543.905-226.636c133.207 34.346 279.128 73.488 400.901 65.268"/><path style="fill:none;stroke:#000;stroke-width:18.1329;stroke-linecap:butt;stroke-linejoin:miter;stroke-miterlimit:4;stroke-dasharray:none;stroke-opacity:1" d="M579.941 169.635c114.995-138.87 228.41-271.884 364.865-331.003M579.941 169.635c105.981 65.7 202.662 175.63 261.261 258.741M1233.094 18.12c-45.928-20.211-201.61-130.147-288.288-179.488"/><ellipse style="fill:#000;fill-opacity:1;stroke-width:.512463;stroke-miterlimit:4;stroke-dasharray:none;marker-start:url(#b)" cx="941.546" cy="-166.03" rx="46.489" ry="47.786"/><ellipse style="fill:#000;fill-opacity:1;stroke-width:.512463;stroke-miterlimit:4;stroke-dasharray:none;marker-start:url(#c)" cx="833.438" cy="419.052" rx="46.489" ry="47.786"/><ellipse style="fill:#000;fill-opacity:1;stroke-width:.512463;stroke-miterlimit:4;stroke-dasharray:none;marker-start:url(#d)" cx="937.042" cy="123.014" rx="46.489" ry="47.786"/><ellipse style="fill:#000;fill-opacity:1;stroke-width:.512463;stroke-miterlimit:4;stroke-dasharray:none;marker-start:url(#e)" cx="594.699" cy="183.155" rx="46.489" ry="47.786"/><ellipse style="fill:#000;fill-opacity:1;stroke-width:.512463;stroke-miterlimit:4;stroke-dasharray:none;marker-start:url(#f)" cx="1211.817" cy="13.457" rx="46.489" ry="47.786"/></g></svg>